<svg width="26" height="26" viewBox="0 0 26 26" fill="none" xmlns="http://www.w3.org/2000/svg">
<path d="M16.9816 18.2264L18.2003 17.0077L13.8941 12.6743V7.2306H12.2691V13.3243L16.9816 18.2264ZM13.0003 23.8327C11.5198 23.8327 10.1205 23.5483 8.80241 22.9796C7.48435 22.4108 6.33331 21.6344 5.34928 20.6504C4.36526 19.6664 3.58887 18.5153 3.02012 17.1973C2.45137 15.8792 2.16699 14.4799 2.16699 12.9993C2.16699 11.5188 2.45137 10.1195 3.02012 8.80143C3.58887 7.48338 4.36526 6.33233 5.34928 5.34831C6.33331 4.36428 7.48435 3.58789 8.80241 3.01914C10.1205 2.45039 11.5198 2.16602 13.0003 2.16602C14.4809 2.16602 15.8802 2.45039 17.1982 3.01914C18.5163 3.58789 19.6673 4.36428 20.6514 5.34831C21.6354 6.33233 22.4118 7.48338 22.9805 8.80143C23.5493 10.1195 23.8337 11.5188 23.8337 12.9993C23.8337 14.4799 23.5493 15.8792 22.9805 17.1973C22.4118 18.5153 21.6354 19.6664 20.6514 20.6504C19.6673 21.6344 18.5163 22.4108 17.1982 22.9796C15.8802 23.5483 14.4809 23.8327 13.0003 23.8327ZM13.0003 22.2077C15.5281 22.2077 17.6948 21.3049 19.5003 19.4993C21.3059 17.6938 22.2087 15.5271 22.2087 12.9993C22.2087 10.4716 21.3059 8.3049 19.5003 6.49935C17.6948 4.69379 15.5281 3.79102 13.0003 3.79102C10.4725 3.79102 8.30588 4.69379 6.50033 6.49935C4.69477 8.3049 3.79199 10.4716 3.79199 12.9993C3.79199 15.5271 4.69477 17.6938 6.50033 19.4993C8.30588 21.3049 10.4725 22.2077 13.0003 22.2077Z" fill="white"/>
</svg>
