<svg width="20" height="20" viewBox="0 0 20 20" fill="none" xmlns="http://www.w3.org/2000/svg">
<path d="M3.3335 15.8327V14.5827H5.0835V8.20768C5.0835 7.04102 5.42725 6.00282 6.11475 5.0931C6.80225 4.18338 7.7085 3.61046 8.8335 3.37435V2.77018C8.8335 2.45074 8.94808 2.18685 9.17725 1.97852C9.40641 1.77018 9.68072 1.66602 10.0002 1.66602C10.3196 1.66602 10.5939 1.77018 10.8231 1.97852C11.0522 2.18685 11.1668 2.45074 11.1668 2.77018V3.37435C12.2918 3.61046 13.2016 4.18338 13.896 5.0931C14.5904 6.00282 14.9377 7.04102 14.9377 8.20768V14.5827H16.6668V15.8327H3.3335ZM10.0002 18.3327C9.55572 18.3327 9.16683 18.1695 8.8335 17.8431C8.50016 17.5167 8.3335 17.1243 8.3335 16.666H11.6668C11.6668 17.1243 11.5036 17.5167 11.1772 17.8431C10.8509 18.1695 10.4585 18.3327 10.0002 18.3327ZM6.3335 14.5827H13.6877V8.20768C13.6877 7.1799 13.3335 6.3049 12.6252 5.58268C11.9168 4.86046 11.0488 4.49935 10.021 4.49935C8.99322 4.49935 8.12169 4.86046 7.40641 5.58268C6.69113 6.3049 6.3335 7.1799 6.3335 8.20768V14.5827Z" fill="#A1A1C1"/>
</svg>
