<svg width="20" height="20" viewBox="0 0 20 20" fill="none" xmlns="http://www.w3.org/2000/svg">
<path d="M13.0623 14.0202L13.9998 13.0827L10.6873 9.74935V5.56185H9.43734V10.2493L13.0623 14.0202ZM9.99984 18.3327C8.86095 18.3327 7.78456 18.1139 6.77067 17.6764C5.75678 17.2389 4.87137 16.6417 4.11442 15.8848C3.35748 15.1278 2.76025 14.2424 2.32275 13.2285C1.88525 12.2146 1.6665 11.1382 1.6665 9.99935C1.6665 8.86046 1.88525 7.78407 2.32275 6.77018C2.76025 5.75629 3.35748 4.87088 4.11442 4.11393C4.87137 3.35699 5.75678 2.75977 6.77067 2.32227C7.78456 1.88477 8.86095 1.66602 9.99984 1.66602C11.1387 1.66602 12.2151 1.88477 13.229 2.32227C14.2429 2.75977 15.1283 3.35699 15.8853 4.11393C16.6422 4.87088 17.2394 5.75629 17.6769 6.77018C18.1144 7.78407 18.3332 8.86046 18.3332 9.99935C18.3332 11.1382 18.1144 12.2146 17.6769 13.2285C17.2394 14.2424 16.6422 15.1278 15.8853 15.8848C15.1283 16.6417 14.2429 17.2389 13.229 17.6764C12.2151 18.1139 11.1387 18.3327 9.99984 18.3327ZM9.99984 17.0827C11.9443 17.0827 13.6109 16.3882 14.9998 14.9993C16.3887 13.6105 17.0832 11.9438 17.0832 9.99935C17.0832 8.0549 16.3887 6.38824 14.9998 4.99935C13.6109 3.61046 11.9443 2.91602 9.99984 2.91602C8.05539 2.91602 6.38873 3.61046 4.99984 4.99935C3.61095 6.38824 2.9165 8.0549 2.9165 9.99935C2.9165 11.9438 3.61095 13.6105 4.99984 14.9993C6.38873 16.3882 8.05539 17.0827 9.99984 17.0827Z" fill="#A1A1C1"/>
</svg>
