<svg width="26" height="26" viewBox="0 0 26 26" fill="none" xmlns="http://www.w3.org/2000/svg">
<path d="M7.17741 15.0577H7.82741V10.941H7.36699L6.14824 11.8077L6.50033 12.3223L7.17741 11.8348V15.0577ZM8.72116 15.0848H11.4295V14.4618H9.64199V14.4077L10.6982 13.3243C10.9149 13.1077 11.0774 12.891 11.1857 12.6743C11.2941 12.4577 11.3482 12.241 11.3482 12.0243C11.3482 11.6632 11.2264 11.3743 10.9826 11.1577C10.7389 10.941 10.4274 10.8327 10.0482 10.8327C9.72324 10.8327 9.44338 10.9139 9.20866 11.0764C8.97394 11.2389 8.81144 11.4646 8.72116 11.7535L9.28991 12.0243C9.36213 11.8438 9.46144 11.7084 9.58783 11.6181C9.71421 11.5278 9.86769 11.4827 10.0482 11.4827C10.2469 11.4827 10.4048 11.5323 10.5222 11.6316C10.6396 11.7309 10.6982 11.8709 10.6982 12.0514C10.6982 12.2681 10.5448 12.548 10.2378 12.891L8.72116 14.4618V15.0848ZM12.5399 15.0577C12.6844 15.0577 12.8017 15.0125 12.892 14.9223C12.9823 14.832 13.0274 14.7146 13.0274 14.5702C13.0274 14.4257 12.9823 14.3084 12.892 14.2181C12.8017 14.1278 12.6844 14.0827 12.5399 14.0827C12.3955 14.0827 12.2781 14.1278 12.1878 14.2181C12.0975 14.3084 12.0524 14.4257 12.0524 14.5702C12.0524 14.7146 12.0975 14.832 12.1878 14.9223C12.2781 15.0125 12.3955 15.0577 12.5399 15.0577ZM12.5399 12.8639C12.6844 12.8639 12.8017 12.8188 12.892 12.7285C12.9823 12.6382 13.0274 12.5209 13.0274 12.3764C13.0274 12.232 12.9823 12.1146 12.892 12.0243C12.8017 11.9341 12.6844 11.8889 12.5399 11.8889C12.3955 11.8889 12.2781 11.9341 12.1878 12.0243C12.0975 12.1146 12.0524 12.232 12.0524 12.3764C12.0524 12.5209 12.0975 12.6382 12.1878 12.7285C12.2781 12.8188 12.3955 12.8639 12.5399 12.8639ZM15.0316 15.166C15.4469 15.166 15.7809 15.0487 16.0337 14.8139C16.2864 14.5792 16.4128 14.2813 16.4128 13.9202C16.4128 13.6674 16.3496 13.4553 16.2232 13.2837C16.0969 13.1122 15.9253 12.9813 15.7087 12.891V12.8639C15.8892 12.7737 16.0291 12.6518 16.1284 12.4983C16.2278 12.3448 16.2774 12.1688 16.2774 11.9702C16.2774 11.6632 16.151 11.3969 15.8982 11.1712C15.6455 10.9455 15.3385 10.8327 14.9774 10.8327C14.6705 10.8327 14.4041 10.9094 14.1784 11.0629C13.9528 11.2164 13.7857 11.4285 13.6774 11.6993L14.2732 11.9431C14.3455 11.7806 14.4403 11.6587 14.5576 11.5775C14.675 11.4962 14.8149 11.4556 14.9774 11.4556C15.176 11.4556 15.3295 11.5053 15.4378 11.6046C15.5462 11.7039 15.6003 11.8257 15.6003 11.9702C15.6003 12.1507 15.5326 12.2997 15.3972 12.4171C15.2618 12.5344 15.0948 12.5931 14.8962 12.5931H14.5712V13.216H14.9232C15.176 13.216 15.3701 13.2657 15.5055 13.365C15.6409 13.4643 15.7087 13.6132 15.7087 13.8118C15.7087 14.0105 15.6364 14.1775 15.492 14.3129C15.3475 14.4483 15.167 14.516 14.9503 14.516C14.7517 14.516 14.5937 14.4618 14.4764 14.3535C14.359 14.2452 14.2642 14.0737 14.192 13.8389L13.5691 14.0827C13.6774 14.4257 13.858 14.6921 14.1107 14.8816C14.3635 15.0712 14.6705 15.166 15.0316 15.166V15.166ZM18.417 15.166C18.8142 15.166 19.1528 15.0306 19.4326 14.7598C19.7125 14.4889 19.8524 14.1549 19.8524 13.7577C19.8524 13.3966 19.735 13.0851 19.5003 12.8233C19.2656 12.5615 18.9677 12.4306 18.6066 12.4306C18.5705 12.4306 18.426 12.4667 18.1732 12.5389L18.1462 12.5118L19.0941 11.2118L18.5524 10.8327L17.4962 12.3493C17.2795 12.6563 17.135 12.9091 17.0628 13.1077C16.9906 13.3063 16.9545 13.4959 16.9545 13.6764C16.9545 14.0917 17.0944 14.4438 17.3743 14.7327C17.6541 15.0216 18.0017 15.166 18.417 15.166ZM18.3899 14.5431C18.1732 14.5431 17.9882 14.4664 17.8347 14.3129C17.6812 14.1594 17.6045 13.9743 17.6045 13.7577C17.6045 13.541 17.6812 13.3559 17.8347 13.2025C17.9882 13.049 18.1732 12.9723 18.3899 12.9723C18.6066 12.9723 18.7916 13.049 18.9451 13.2025C19.0986 13.3559 19.1753 13.541 19.1753 13.7577C19.1753 13.9743 19.0986 14.1594 18.9451 14.3129C18.7916 14.4664 18.6066 14.5431 18.3899 14.5431V14.5431ZM13.0003 23.8327C11.5198 23.8327 10.1205 23.5483 8.80241 22.9796C7.48435 22.4108 6.33331 21.6344 5.34928 20.6504C4.36526 19.6664 3.58887 18.5153 3.02012 17.1973C2.45137 15.8792 2.16699 14.4799 2.16699 12.9993C2.16699 11.5188 2.45137 10.1195 3.02012 8.80143C3.58887 7.48338 4.36526 6.33233 5.34928 5.34831C6.33331 4.36428 7.48435 3.58789 8.80241 3.01914C10.1205 2.45039 11.5198 2.16602 13.0003 2.16602C14.4809 2.16602 15.8802 2.45039 17.1982 3.01914C18.5163 3.58789 19.6673 4.36428 20.6514 5.34831C21.6354 6.33233 22.4118 7.48338 22.9805 8.80143C23.5493 10.1195 23.8337 11.5188 23.8337 12.9993C23.8337 14.4799 23.5493 15.8792 22.9805 17.1973C22.4118 18.5153 21.6354 19.6664 20.6514 20.6504C19.6673 21.6344 18.5163 22.4108 17.1982 22.9796C15.8802 23.5483 14.4809 23.8327 13.0003 23.8327ZM13.0003 22.2077C15.5281 22.2077 17.6948 21.3049 19.5003 19.4993C21.3059 17.6938 22.2087 15.5271 22.2087 12.9993C22.2087 10.4716 21.3059 8.3049 19.5003 6.49935C17.6948 4.69379 15.5281 3.79102 13.0003 3.79102C10.4725 3.79102 8.30588 4.69379 6.50033 6.49935C4.69477 8.3049 3.79199 10.4716 3.79199 12.9993C3.79199 15.5271 4.69477 17.6938 6.50033 19.4993C8.30588 21.3049 10.4725 22.2077 13.0003 22.2077Z" fill="white"/>
</svg>
