<svg width="26" height="26" viewBox="0 0 26 26" fill="none" xmlns="http://www.w3.org/2000/svg">
<path d="M11.4019 17.9295L19.0665 10.2649L17.8207 9.04616L11.4019 15.4649L8.15192 12.2149L6.93317 13.4337L11.4019 17.9295ZM12.9998 23.8337C11.5193 23.8337 10.12 23.5493 8.80192 22.9805C7.48386 22.4118 6.33282 21.6354 5.3488 20.6514C4.36477 19.6673 3.58838 18.5163 3.01963 17.1982C2.45088 15.8802 2.1665 14.4809 2.1665 13.0003C2.1665 11.5017 2.45088 10.0934 3.01963 8.77533C3.58838 7.45727 4.36477 6.31074 5.3488 5.33574C6.33282 4.36074 7.48386 3.58887 8.80192 3.02012C10.12 2.45137 11.5193 2.16699 12.9998 2.16699C14.4984 2.16699 15.9068 2.45137 17.2248 3.02012C18.5429 3.58887 19.6894 4.36074 20.6644 5.33574C21.6394 6.31074 22.4113 7.45727 22.98 8.77533C23.5488 10.0934 23.8332 11.5017 23.8332 13.0003C23.8332 14.4809 23.5488 15.8802 22.98 17.1982C22.4113 18.5163 21.6394 19.6673 20.6644 20.6514C19.6894 21.6354 18.5429 22.4118 17.2248 22.9805C15.9068 23.5493 14.4984 23.8337 12.9998 23.8337ZM12.9998 22.2087C15.5637 22.2087 17.7394 21.3104 19.5269 19.5139C21.3144 17.7173 22.2082 15.5462 22.2082 13.0003C22.2082 10.4364 21.3144 8.26074 19.5269 6.47324C17.7394 4.68574 15.5637 3.79199 12.9998 3.79199C10.454 3.79199 8.28282 4.68574 6.4863 6.47324C4.68977 8.26074 3.7915 10.4364 3.7915 13.0003C3.7915 15.5462 4.68977 17.7173 6.4863 19.5139C8.28282 21.3104 10.454 22.2087 12.9998 22.2087Z" fill="white"/>
</svg>
