<svg width="26" height="26" viewBox="0 0 26 26" fill="none" xmlns="http://www.w3.org/2000/svg">
<path d="M13.1082 19.3107C13.3971 19.3107 13.6408 19.2114 13.8394 19.0128C14.038 18.8142 14.1373 18.5705 14.1373 18.2816C14.1373 17.9927 14.038 17.7489 13.8394 17.5503C13.6408 17.3517 13.3971 17.2524 13.1082 17.2524C12.8193 17.2524 12.5755 17.3517 12.3769 17.5503C12.1783 17.7489 12.079 17.9927 12.079 18.2816C12.079 18.5705 12.1783 18.8142 12.3769 19.0128C12.5755 19.2114 12.8193 19.3107 13.1082 19.3107ZM12.1603 15.3566H13.7582C13.7582 14.8871 13.8169 14.4583 13.9342 14.0701C14.0516 13.6819 14.4172 13.235 15.0311 12.7295C15.5908 12.26 15.988 11.7996 16.2228 11.3482C16.4575 10.8969 16.5748 10.4003 16.5748 9.85866C16.5748 8.90171 16.2634 8.13435 15.6405 7.55657C15.0175 6.9788 14.1915 6.68991 13.1623 6.68991C12.2776 6.68991 11.4967 6.91109 10.8196 7.35345C10.1425 7.79581 9.65053 8.40519 9.34359 9.18158L10.779 9.72324C10.9776 9.21769 11.2755 8.82498 11.6728 8.54512C12.07 8.26526 12.5394 8.12533 13.0811 8.12533C13.695 8.12533 14.1915 8.29234 14.5707 8.62637C14.9498 8.96039 15.1394 9.38921 15.1394 9.91282C15.1394 10.31 15.0221 10.6847 14.7873 11.0368C14.5526 11.3889 14.2096 11.7545 13.7582 12.1337C13.2165 12.6031 12.8148 13.068 12.553 13.5285C12.2912 13.9889 12.1603 14.5982 12.1603 15.3566ZM12.9998 23.8337C11.5193 23.8337 10.12 23.5493 8.80192 22.9805C7.48386 22.4118 6.33282 21.6354 5.3488 20.6514C4.36477 19.6673 3.58838 18.5163 3.01963 17.1982C2.45088 15.8802 2.1665 14.4809 2.1665 13.0003C2.1665 11.5017 2.45088 10.0934 3.01963 8.77533C3.58838 7.45727 4.36477 6.31074 5.3488 5.33574C6.33282 4.36074 7.48386 3.58887 8.80192 3.02012C10.12 2.45137 11.5193 2.16699 12.9998 2.16699C14.4984 2.16699 15.9068 2.45137 17.2248 3.02012C18.5429 3.58887 19.6894 4.36074 20.6644 5.33574C21.6394 6.31074 22.4113 7.45727 22.98 8.77533C23.5488 10.0934 23.8332 11.5017 23.8332 13.0003C23.8332 14.4809 23.5488 15.8802 22.98 17.1982C22.4113 18.5163 21.6394 19.6673 20.6644 20.6514C19.6894 21.6354 18.5429 22.4118 17.2248 22.9805C15.9068 23.5493 14.4984 23.8337 12.9998 23.8337ZM12.9998 22.2087C15.5637 22.2087 17.7394 21.3104 19.5269 19.5139C21.3144 17.7173 22.2082 15.5462 22.2082 13.0003C22.2082 10.4364 21.3144 8.26074 19.5269 6.47324C17.7394 4.68574 15.5637 3.79199 12.9998 3.79199C10.454 3.79199 8.28282 4.68574 6.4863 6.47324C4.68977 8.26074 3.7915 10.4364 3.7915 13.0003C3.7915 15.5462 4.68977 17.7173 6.4863 19.5139C8.28282 21.3104 10.454 22.2087 12.9998 22.2087Z" fill="#8489A0"/>
</svg>
