<svg width="26" height="26" viewBox="0 0 26 26" fill="none" xmlns="http://www.w3.org/2000/svg">
<path d="M13 24.917L9.75 21.667H4.875C4.44167 21.667 4.0625 21.5 3.7375 21.166C3.4125 20.8319 3.25 20.4573 3.25 20.042V3.79199C3.25 3.35866 3.4125 2.97949 3.7375 2.65449C4.0625 2.32949 4.44167 2.16699 4.875 2.16699H21.125C21.5403 2.16699 21.9149 2.32949 22.249 2.65449C22.583 2.97949 22.75 3.35866 22.75 3.79199V20.042C22.75 20.4573 22.583 20.8319 22.249 21.166C21.9149 21.5 21.5403 21.667 21.125 21.667H16.25L13 24.917ZM4.875 20.042H10.4L13 22.642L15.6 20.042H21.125V3.79199H4.875V20.042ZM4.875 3.79199V20.042V3.79199ZM12.9188 17.9295C13.2076 17.9295 13.4514 17.8302 13.65 17.6316C13.8486 17.433 13.9479 17.1892 13.9479 16.9003C13.9479 16.6114 13.8486 16.3677 13.65 16.1691C13.4514 15.9705 13.2076 15.8712 12.9188 15.8712C12.6299 15.8712 12.3861 15.9705 12.1875 16.1691C11.9889 16.3677 11.8896 16.6114 11.8896 16.9003C11.8896 17.1892 11.9889 17.433 12.1875 17.6316C12.3861 17.8302 12.6299 17.9295 12.9188 17.9295ZM13.5688 13.9212C13.5688 13.3614 13.659 12.9055 13.8396 12.5535C14.0201 12.2014 14.3361 11.7996 14.7875 11.3482C15.3833 10.7524 15.7986 10.2243 16.0333 9.76387C16.2681 9.30345 16.3854 8.82047 16.3854 8.31491C16.3854 7.35796 16.0785 6.59963 15.4646 6.03991C14.8507 5.48019 14.0201 5.20033 12.9729 5.20033C12.0521 5.20033 11.2622 5.42151 10.6031 5.86387C9.9441 6.30623 9.46111 6.9156 9.15417 7.69199L10.5896 8.28783C10.8424 7.78227 11.1674 7.39859 11.5646 7.13678C11.9618 6.87498 12.4313 6.74408 12.9729 6.74408C13.5507 6.74408 14.0066 6.88852 14.3406 7.17741C14.6747 7.4663 14.8417 7.86352 14.8417 8.36908C14.8417 8.73019 14.7424 9.07776 14.5438 9.41178C14.3451 9.74581 14.0111 10.1385 13.5417 10.5899C12.8736 11.2219 12.4538 11.7635 12.2823 12.2149C12.1108 12.6663 12.025 13.235 12.025 13.9212H13.5688Z" fill="white"/>
</svg>
