<svg width="22" height="22" viewBox="0 0 22 22" fill="none" xmlns="http://www.w3.org/2000/svg">
<path d="M9.28117 12.833H16.4999V11.458H10.6562L9.28117 12.833ZM5.49992 12.833H7.31033L13.0853 7.12676C13.177 7.03509 13.2228 6.92051 13.2228 6.78301C13.2228 6.64551 13.177 6.53092 13.0853 6.43926L11.8249 5.29342C11.7485 5.21704 11.653 5.17884 11.5385 5.17884C11.4239 5.17884 11.3284 5.21704 11.252 5.29342L5.49992 11.1372V12.833ZM1.83325 20.1663V3.20801C1.83325 2.85662 1.97075 2.53961 2.24575 2.25697C2.52075 1.97433 2.84159 1.83301 3.20825 1.83301H18.7916C19.143 1.83301 19.46 1.97433 19.7426 2.25697C20.0253 2.53961 20.1666 2.85662 20.1666 3.20801V15.1247C20.1666 15.4761 20.0253 15.7931 19.7426 16.0757C19.46 16.3584 19.143 16.4997 18.7916 16.4997H5.49992L1.83325 20.1663ZM3.20825 16.8434L4.927 15.1247H18.7916V3.20801H3.20825V16.8434ZM3.20825 3.20801V16.8434V3.20801Z" fill="#A1A1C1"/>
</svg>
