<svg width="22" height="22" viewBox="0 0 22 22" fill="none" xmlns="http://www.w3.org/2000/svg">
<path d="M8.89158 20.1663L8.43325 17.2788C8.14297 17.1719 7.83742 17.0268 7.51658 16.8434C7.19575 16.6601 6.91311 16.4691 6.66867 16.2705L3.9645 17.508L1.83325 13.7497L4.30825 11.9393C4.2777 11.8018 4.2586 11.6452 4.25096 11.4695C4.24332 11.2938 4.2395 11.1372 4.2395 10.9997C4.2395 10.8622 4.24332 10.7056 4.25096 10.5299C4.2586 10.3542 4.2777 10.1976 4.30825 10.0601L1.83325 8.24967L3.9645 4.49134L6.66867 5.72884C6.91311 5.53023 7.19575 5.33926 7.51658 5.15592C7.83742 4.97259 8.14297 4.83509 8.43325 4.74342L8.89158 1.83301H13.1083L13.5666 4.72051C13.8569 4.82745 14.1662 4.96877 14.4947 5.14447C14.8232 5.32016 15.102 5.51495 15.3312 5.72884L18.0353 4.49134L20.1666 8.24967L17.6916 10.0143C17.7221 10.167 17.7412 10.3313 17.7489 10.507C17.7565 10.6827 17.7603 10.8469 17.7603 10.9997C17.7603 11.1525 17.7565 11.3129 17.7489 11.4809C17.7412 11.649 17.7221 11.8094 17.6916 11.9622L20.1666 13.7497L18.0353 17.508L15.3312 16.2705C15.0867 16.4691 14.8079 16.6639 14.4947 16.8549C14.1815 17.0459 13.8721 17.1872 13.5666 17.2788L13.1083 20.1663H8.89158ZM10.9999 13.9788C11.8249 13.9788 12.5277 13.6886 13.1083 13.108C13.6888 12.5275 13.9791 11.8247 13.9791 10.9997C13.9791 10.1747 13.6888 9.4719 13.1083 8.89134C12.5277 8.31078 11.8249 8.02051 10.9999 8.02051C10.1749 8.02051 9.47214 8.31078 8.89158 8.89134C8.31103 9.4719 8.02075 10.1747 8.02075 10.9997C8.02075 11.8247 8.31103 12.5275 8.89158 13.108C9.47214 13.6886 10.1749 13.9788 10.9999 13.9788ZM10.9999 12.6038C10.5569 12.6038 10.1787 12.4472 9.86554 12.134C9.55235 11.8209 9.39575 11.4427 9.39575 10.9997C9.39575 10.5566 9.55235 10.1785 9.86554 9.8653C10.1787 9.5521 10.5569 9.39551 10.9999 9.39551C11.443 9.39551 11.8211 9.5521 12.1343 9.8653C12.4475 10.1785 12.6041 10.5566 12.6041 10.9997C12.6041 11.4427 12.4475 11.8209 12.1343 12.134C11.8211 12.4472 11.443 12.6038 10.9999 12.6038ZM9.99158 18.7913H12.0083L12.3291 16.2247C12.8332 16.1025 13.3107 15.9115 13.7614 15.6518C14.2121 15.392 14.6208 15.0788 14.9874 14.7122L17.4166 15.7663L18.3332 14.1163L16.1791 12.5351C16.2402 12.2754 16.2898 12.0195 16.328 11.7674C16.3662 11.5153 16.3853 11.2594 16.3853 10.9997C16.3853 10.74 16.3701 10.484 16.3395 10.232C16.3089 9.97988 16.2555 9.72398 16.1791 9.46426L18.3332 7.88301L17.4166 6.23301L14.9874 7.28717C14.636 6.88995 14.2388 6.55766 13.7958 6.2903C13.3527 6.02294 12.8638 5.85106 12.3291 5.77467L12.0083 3.20801H9.99158L9.67075 5.77467C9.15131 5.88162 8.66624 6.06495 8.21554 6.32467C7.76485 6.5844 7.36381 6.90523 7.01242 7.28717L4.58325 6.23301L3.66658 7.88301L5.82075 9.46426C5.75964 9.72398 5.70999 9.97988 5.67179 10.232C5.6336 10.484 5.6145 10.74 5.6145 10.9997C5.6145 11.2594 5.6336 11.5153 5.67179 11.7674C5.70999 12.0195 5.75964 12.2754 5.82075 12.5351L3.66658 14.1163L4.58325 15.7663L7.01242 14.7122C7.37908 15.0788 7.78776 15.392 8.23846 15.6518C8.68915 15.9115 9.16658 16.1025 9.67075 16.2247L9.99158 18.7913Z" fill="#A1A1C1"/>
</svg>
