<svg width="22" height="22" viewBox="0 0 22 22" fill="none" xmlns="http://www.w3.org/2000/svg">
<path d="M12.4437 14.208C12.7034 14.208 12.9249 14.1163 13.1083 13.933C13.2916 13.7497 13.3833 13.5281 13.3833 13.2684C13.3833 13.0087 13.2916 12.7872 13.1083 12.6038C12.9249 12.4205 12.7034 12.3288 12.4437 12.3288C12.1839 12.3288 11.9624 12.4205 11.7791 12.6038C11.5958 12.7872 11.5041 13.0087 11.5041 13.2684C11.5041 13.5281 11.5958 13.7497 11.7791 13.933C11.9624 14.1163 12.1839 14.208 12.4437 14.208ZM11.8708 11.3205H12.9478C12.9784 10.8775 13.0433 10.549 13.1426 10.3351C13.2419 10.1212 13.4902 9.82328 13.8874 9.44134C14.2999 9.04412 14.5864 8.69655 14.7468 8.39863C14.9072 8.10072 14.9874 7.75315 14.9874 7.35592C14.9874 6.65315 14.7468 6.08023 14.2655 5.63717C13.7843 5.19412 13.1541 4.97259 12.3749 4.97259C11.7944 4.97259 11.2749 5.12919 10.8166 5.44238C10.3583 5.75558 10.0221 6.19481 9.80825 6.76009L10.8395 7.19551C11.0076 6.81356 11.2176 6.52328 11.4697 6.32467C11.7218 6.12606 12.0235 6.02676 12.3749 6.02676C12.8333 6.02676 13.2037 6.15662 13.4864 6.41634C13.769 6.67606 13.9103 7.00453 13.9103 7.40176C13.9103 7.70731 13.8416 7.97467 13.7041 8.20384C13.5666 8.43301 13.3221 8.67745 12.9707 8.93717C12.4819 9.38023 12.1763 9.73544 12.0541 10.0028C11.9319 10.2702 11.8708 10.7094 11.8708 11.3205V11.3205ZM5.95825 17.4163C5.59158 17.4163 5.27075 17.2788 4.99575 17.0038C4.72075 16.7288 4.58325 16.408 4.58325 16.0413V3.20801C4.58325 2.84134 4.72075 2.52051 4.99575 2.24551C5.27075 1.97051 5.59158 1.83301 5.95825 1.83301H18.7916C19.1582 1.83301 19.4791 1.97051 19.7541 2.24551C20.0291 2.52051 20.1666 2.84134 20.1666 3.20801V16.0413C20.1666 16.408 20.0291 16.7288 19.7541 17.0038C19.4791 17.2788 19.1582 17.4163 18.7916 17.4163H5.95825ZM5.95825 16.0413H18.7916V3.20801H5.95825V16.0413ZM3.20825 20.1663C2.84159 20.1663 2.52075 20.0288 2.24575 19.7538C1.97075 19.4788 1.83325 19.158 1.83325 18.7913V4.58301H3.20825V18.7913H17.4166V20.1663H3.20825ZM5.95825 3.20801V16.0413V3.20801Z" fill="#A1A1C1"/>
</svg>
