<svg width="18" height="18" viewBox="0 0 18 18" fill="none" xmlns="http://www.w3.org/2000/svg">
<path d="M8.4375 12.75H9.5625V9.5625H12.75V8.4375H9.5625V5.25H8.4375V8.4375H5.25V9.5625H8.4375V12.75ZM3.375 15.75C3.075 15.75 2.8125 15.6375 2.5875 15.4125C2.3625 15.1875 2.25 14.925 2.25 14.625V3.375C2.25 3.075 2.3625 2.8125 2.5875 2.5875C2.8125 2.3625 3.075 2.25 3.375 2.25H14.625C14.925 2.25 15.1875 2.3625 15.4125 2.5875C15.6375 2.8125 15.75 3.075 15.75 3.375V14.625C15.75 14.925 15.6375 15.1875 15.4125 15.4125C15.1875 15.6375 14.925 15.75 14.625 15.75H3.375ZM3.375 14.625H14.625V3.375H3.375V14.625ZM3.375 3.375V14.625V3.375Z" fill="white"/>
</svg>
