<svg width="20" height="20" viewBox="0 0 20 20" fill="none" xmlns="http://www.w3.org/2000/svg">
<path d="M5.54175 11.041C5.83341 11.041 6.07994 10.9403 6.28133 10.7389C6.48272 10.5375 6.58341 10.291 6.58341 9.99935C6.58341 9.70768 6.48272 9.46115 6.28133 9.25977C6.07994 9.05838 5.83341 8.95768 5.54175 8.95768C5.25008 8.95768 5.00355 9.05838 4.80216 9.25977C4.60078 9.46115 4.50008 9.70768 4.50008 9.99935C4.50008 10.291 4.60078 10.5375 4.80216 10.7389C5.00355 10.9403 5.25008 11.041 5.54175 11.041ZM10.0001 11.041C10.2917 11.041 10.5383 10.9403 10.7397 10.7389C10.9411 10.5375 11.0417 10.291 11.0417 9.99935C11.0417 9.70768 10.9411 9.46115 10.7397 9.25977C10.5383 9.05838 10.2917 8.95768 10.0001 8.95768C9.70841 8.95768 9.46189 9.05838 9.2605 9.25977C9.05911 9.46115 8.95841 9.70768 8.95841 9.99935C8.95841 10.291 9.05911 10.5375 9.2605 10.7389C9.46189 10.9403 9.70841 11.041 10.0001 11.041ZM14.4376 11.041C14.7292 11.041 14.9758 10.9403 15.1772 10.7389C15.3786 10.5375 15.4792 10.291 15.4792 9.99935C15.4792 9.70768 15.3786 9.46115 15.1772 9.25977C14.9758 9.05838 14.7292 8.95768 14.4376 8.95768C14.1459 8.95768 13.8994 9.05838 13.698 9.25977C13.4966 9.46115 13.3959 9.70768 13.3959 9.99935C13.3959 10.291 13.4966 10.5375 13.698 10.7389C13.8994 10.9403 14.1459 11.041 14.4376 11.041ZM10.0001 18.3327C8.86119 18.3327 7.7848 18.1139 6.77091 17.6764C5.75703 17.2389 4.87161 16.6417 4.11466 15.8848C3.35772 15.1278 2.7605 14.2424 2.323 13.2285C1.8855 12.2146 1.66675 11.1313 1.66675 9.97852C1.66675 8.83963 1.8855 7.76324 2.323 6.74935C2.7605 5.73546 3.35772 4.85352 4.11466 4.10352C4.87161 3.35352 5.75703 2.75977 6.77091 2.32227C7.7848 1.88477 8.86814 1.66602 10.0209 1.66602C11.1598 1.66602 12.2362 1.88477 13.2501 2.32227C14.264 2.75977 15.1459 3.35352 15.8959 4.10352C16.6459 4.85352 17.2397 5.73546 17.6772 6.74935C18.1147 7.76324 18.3334 8.84657 18.3334 9.99935C18.3334 11.1382 18.1147 12.2146 17.6772 13.2285C17.2397 14.2424 16.6459 15.1278 15.8959 15.8848C15.1459 16.6417 14.264 17.2389 13.2501 17.6764C12.2362 18.1139 11.1529 18.3327 10.0001 18.3327ZM10.0209 17.0827C11.9792 17.0827 13.6459 16.3917 15.0209 15.0098C16.3959 13.6278 17.0834 11.9507 17.0834 9.97852C17.0834 8.02018 16.3959 6.35352 15.0209 4.97852C13.6459 3.60352 11.9723 2.91602 10.0001 2.91602C8.04175 2.91602 6.37161 3.60352 4.98966 4.97852C3.60772 6.35352 2.91675 8.02713 2.91675 9.99935C2.91675 11.9577 3.60772 13.6278 4.98966 15.0098C6.37161 16.3917 8.04869 17.0827 10.0209 17.0827Z" fill="#A1A1C1"/>
</svg>
