<svg width="20" height="20" viewBox="0 0 20 20" fill="none" xmlns="http://www.w3.org/2000/svg">
<path d="M10.0001 18.3327C8.81953 18.3327 7.7223 18.1209 6.70841 17.6973C5.69453 17.2737 4.81258 16.6868 4.06258 15.9368C3.31258 15.1868 2.72578 14.3049 2.30216 13.291C1.87855 12.2771 1.66675 11.1799 1.66675 9.99935C1.66675 8.83268 1.87855 7.7424 2.30216 6.72852C2.72578 5.71463 3.31258 4.83268 4.06258 4.08268C4.81258 3.33268 5.69453 2.7424 6.70841 2.31185C7.7223 1.88129 8.81953 1.66602 10.0001 1.66602C11.0417 1.66602 12.014 1.83268 12.9167 2.16602C13.8195 2.49935 14.632 2.95768 15.3542 3.54102L14.4584 4.43685C13.8473 3.95074 13.1667 3.57574 12.4167 3.31185C11.6667 3.04796 10.8612 2.91602 10.0001 2.91602C7.98619 2.91602 6.30216 3.5931 4.948 4.94727C3.59383 6.30143 2.91675 7.98546 2.91675 9.99935C2.91675 12.0132 3.59383 13.6973 4.948 15.0514C6.30216 16.4056 7.98619 17.0827 10.0001 17.0827C10.514 17.0827 11.0105 17.0341 11.4897 16.9368C11.9688 16.8396 12.4306 16.6938 12.8751 16.4993L13.8126 17.4577C13.2431 17.7355 12.639 17.9507 12.0001 18.1035C11.3612 18.2563 10.6945 18.3327 10.0001 18.3327ZM16.0417 16.4577V13.9577H13.5417V12.7077H16.0417V10.2077H17.2917V12.7077H19.7917V13.9577H17.2917V16.4577H16.0417ZM8.77091 13.791L5.33341 10.3327L6.27091 9.39518L8.77091 11.8952L17.3959 3.27018L18.3542 4.20768L8.77091 13.791Z" fill="white"/>
</svg>
