<svg width="26" height="26" viewBox="0 0 26 26" fill="none" xmlns="http://www.w3.org/2000/svg">
<path d="M7.06875 11.7545L13.0271 2.16699L18.9854 11.7545H7.06875ZM19.1208 23.8336C17.7847 23.8336 16.6653 23.3823 15.7625 22.4795C14.8597 21.5767 14.4083 20.4573 14.4083 19.1211C14.4083 17.785 14.8597 16.6656 15.7625 15.7628C16.6653 14.86 17.7847 14.4087 19.1208 14.4087C20.457 14.4087 21.5764 14.86 22.4792 15.7628C23.382 16.6656 23.8333 17.785 23.8333 19.1211C23.8333 20.4573 23.382 21.5767 22.4792 22.4795C21.5764 23.3823 20.457 23.8336 19.1208 23.8336ZM3.25 23.1566V14.9232H11.4833V23.1566H3.25ZM19.1208 22.2086C19.9875 22.2086 20.7188 21.9107 21.3146 21.3149C21.9104 20.7191 22.2083 19.9878 22.2083 19.1211C22.2083 18.2545 21.9104 17.5232 21.3146 16.9274C20.7188 16.3316 19.9875 16.0337 19.1208 16.0337C18.2542 16.0337 17.5229 16.3316 16.9271 16.9274C16.3313 17.5232 16.0333 18.2545 16.0333 19.1211C16.0333 19.9878 16.3313 20.7191 16.9271 21.3149C17.5229 21.9107 18.2542 22.2086 19.1208 22.2086ZM4.875 21.5316H9.85834V16.5482H4.875V21.5316ZM9.99375 10.1295H16.0604L13.0271 5.22741L9.99375 10.1295Z" fill="#A1A1C1"/>
</svg>
