<svg width="26" height="26" viewBox="0 0 26 26" fill="none" xmlns="http://www.w3.org/2000/svg">
<path d="M13.0002 21.6673C12.6391 21.6673 12.3321 21.5409 12.0794 21.2882C11.8266 21.0354 11.7002 20.7284 11.7002 20.3673C11.7002 20.0062 11.8266 19.6993 12.0794 19.4465C12.3321 19.1937 12.6391 19.0673 13.0002 19.0673C13.3613 19.0673 13.6683 19.1937 13.921 19.4465C14.1738 19.6993 14.3002 20.0062 14.3002 20.3673C14.3002 20.7284 14.1738 21.0354 13.921 21.2882C13.6683 21.5409 13.3613 21.6673 13.0002 21.6673ZM13.0002 14.3007C12.6391 14.3007 12.3321 14.1743 12.0794 13.9215C11.8266 13.6687 11.7002 13.3618 11.7002 13.0007C11.7002 12.6395 11.8266 12.3326 12.0794 12.0798C12.3321 11.827 12.6391 11.7007 13.0002 11.7007C13.3613 11.7007 13.6683 11.827 13.921 12.0798C14.1738 12.3326 14.3002 12.6395 14.3002 13.0007C14.3002 13.3618 14.1738 13.6687 13.921 13.9215C13.6683 14.1743 13.3613 14.3007 13.0002 14.3007ZM13.0002 6.93398C12.6391 6.93398 12.3321 6.8076 12.0794 6.55482C11.8266 6.30204 11.7002 5.9951 11.7002 5.63398C11.7002 5.27287 11.8266 4.96593 12.0794 4.71315C12.3321 4.46037 12.6391 4.33398 13.0002 4.33398C13.3613 4.33398 13.6683 4.46037 13.921 4.71315C14.1738 4.96593 14.3002 5.27287 14.3002 5.63398C14.3002 5.9951 14.1738 6.30204 13.921 6.55482C13.6683 6.8076 13.3613 6.93398 13.0002 6.93398Z" fill="white"/>
</svg>
