<svg width="26" height="26" viewBox="0 0 26 26" fill="none" xmlns="http://www.w3.org/2000/svg">
<path d="M12.4583 23.8337C10.8153 23.8337 9.41146 23.2694 8.24688 22.1409C7.08229 21.0125 6.5 19.6267 6.5 17.9837V6.33783C6.5 5.18227 6.91076 4.19824 7.73229 3.38574C8.55382 2.57324 9.54236 2.16699 10.6979 2.16699C11.8715 2.16699 12.8646 2.57324 13.6771 3.38574C14.4896 4.19824 14.8958 5.1913 14.8958 6.36491V15.4107H13.8125V6.33783C13.8125 5.47116 13.5101 4.73991 12.9052 4.14408C12.3003 3.54824 11.5646 3.25033 10.6979 3.25033C9.83125 3.25033 9.09549 3.54824 8.49063 4.14408C7.88576 4.73991 7.58333 5.47116 7.58333 6.33783V18.0378C7.58333 19.3559 8.06181 20.4708 9.01875 21.3826C9.97569 22.2944 11.1222 22.7503 12.4583 22.7503C13.1444 22.7503 13.7899 22.6194 14.3948 22.3576C14.9997 22.0958 15.5278 21.7392 15.9792 21.2878V22.6962C15.4736 23.0573 14.9274 23.3371 14.3406 23.5357C13.7538 23.7344 13.1264 23.8337 12.4583 23.8337ZM17.6042 22.4795V19.2295H14.3542V17.6045H17.6042V14.3545H19.2292V17.6045H22.4792V19.2295H19.2292V22.4795H17.6042ZM12.4583 18.417V19.5003C11.7722 19.5003 11.1944 19.243 10.725 18.7284C10.2556 18.2139 10.0208 17.6045 10.0208 16.9003V6.28366H11.1042V16.9816C11.1042 17.3788 11.2351 17.7173 11.4969 17.9972C11.7587 18.2771 12.0792 18.417 12.4583 18.417ZM17.3333 11.9982V6.28366H18.4167V11.9982H17.3333Z" fill="#A1A1C1"/>
</svg>
