<svg width="26" height="26" viewBox="0 0 26 26" fill="none" xmlns="http://www.w3.org/2000/svg">
<path d="M8.96466 14.3274H9.96675V12.0795H11.2667C11.5556 12.0795 11.7949 11.9847 11.9845 11.7951C12.174 11.6055 12.2688 11.3663 12.2688 11.0774V9.77741C12.2688 9.48852 12.174 9.24928 11.9845 9.0597C11.7949 8.87012 11.5556 8.77533 11.2667 8.77533H8.96466V14.3274ZM9.96675 11.0774V9.77741H11.2667V11.0774H9.96675ZM13.4605 14.3274H15.7355C16.0063 14.3274 16.2411 14.2326 16.4397 14.043C16.6383 13.8534 16.7376 13.6142 16.7376 13.3253V9.77741C16.7376 9.48852 16.6383 9.24928 16.4397 9.0597C16.2411 8.87012 16.0063 8.77533 15.7355 8.77533H13.4605V14.3274ZM14.4626 13.3253V9.77741H15.7355V13.3253H14.4626ZM18.0647 14.3274H19.0667V12.0795H20.4209V11.0774H19.0667V9.77741H20.4209V8.77533H18.0647V14.3274ZM7.04175 20.5837C6.60841 20.5837 6.22925 20.4212 5.90425 20.0962C5.57925 19.7712 5.41675 19.392 5.41675 18.9587V3.79199C5.41675 3.35866 5.57925 2.97949 5.90425 2.65449C6.22925 2.32949 6.60841 2.16699 7.04175 2.16699H22.2084C22.6417 2.16699 23.0209 2.32949 23.3459 2.65449C23.6709 2.97949 23.8334 3.35866 23.8334 3.79199V18.9587C23.8334 19.392 23.6709 19.7712 23.3459 20.0962C23.0209 20.4212 22.6417 20.5837 22.2084 20.5837H7.04175ZM7.04175 18.9587H22.2084V3.79199H7.04175V18.9587ZM3.79175 23.8337C3.35841 23.8337 2.97925 23.6712 2.65425 23.3462C2.32925 23.0212 2.16675 22.642 2.16675 22.2087V5.41699H3.79175V22.2087H20.5834V23.8337H3.79175ZM7.04175 3.79199V18.9587V3.79199Z" fill="#A1A1C1"/>
</svg>
