<svg width="26" height="26" viewBox="0 0 26 26" fill="none" xmlns="http://www.w3.org/2000/svg">
<path d="M8.63975 19.2295H17.3606V17.6045H8.63975V19.2295ZM8.63975 14.6253H17.3606V13.0003H8.63975V14.6253ZM5.9585 23.8337C5.52516 23.8337 5.146 23.6712 4.821 23.3462C4.496 23.0212 4.3335 22.642 4.3335 22.2087V3.79199C4.3335 3.35866 4.496 2.97949 4.821 2.65449C5.146 2.32949 5.52516 2.16699 5.9585 2.16699H15.7356L21.6668 8.09824V22.2087C21.6668 22.642 21.5043 23.0212 21.1793 23.3462C20.8543 23.6712 20.4752 23.8337 20.0418 23.8337H5.9585ZM14.9231 8.82949V3.79199H5.9585V22.2087H20.0418V8.82949H14.9231ZM5.9585 3.79199V8.82949V3.79199V22.2087V3.79199Z" fill="#A1A1C1"/>
</svg>
