<svg width="26" height="26" viewBox="0 0 26 26" fill="none" xmlns="http://www.w3.org/2000/svg">
<path d="M9.34359 15.7899H19.9332L16.4936 11.1587L13.704 14.8149L11.8623 12.4587L9.34359 15.7899ZM7.0415 20.5837C6.60817 20.5837 6.229 20.4212 5.904 20.0962C5.579 19.7712 5.4165 19.392 5.4165 18.9587V3.79199C5.4165 3.35866 5.579 2.97949 5.904 2.65449C6.229 2.32949 6.60817 2.16699 7.0415 2.16699H22.2082C22.6415 2.16699 23.0207 2.32949 23.3457 2.65449C23.6707 2.97949 23.8332 3.35866 23.8332 3.79199V18.9587C23.8332 19.392 23.6707 19.7712 23.3457 20.0962C23.0207 20.4212 22.6415 20.5837 22.2082 20.5837H7.0415ZM7.0415 18.9587H22.2082V3.79199H7.0415V18.9587ZM3.7915 23.8337C3.35817 23.8337 2.979 23.6712 2.654 23.3462C2.329 23.0212 2.1665 22.642 2.1665 22.2087V5.41699H3.7915V22.2087H20.5832V23.8337H3.7915ZM7.0415 3.79199V18.9587V3.79199Z" fill="#A1A1C1"/>
</svg>
