<svg width="20" height="20" viewBox="0 0 20 20" fill="none" xmlns="http://www.w3.org/2000/svg">
<path d="M7.20825 18.75L5.62492 16.0417L2.47909 15.3958L2.83325 12.3333L0.833252 10L2.83325 7.6875L2.47909 4.625L5.62492 3.97917L7.20825 1.25L9.99992 2.54167L12.7916 1.25L14.3958 3.97917L17.5208 4.625L17.1666 7.6875L19.1666 10L17.1666 12.3333L17.5208 15.3958L14.3958 16.0417L12.7916 18.75L9.99992 17.4583L7.20825 18.75ZM7.77075 17.1042L9.99992 16.1667L12.2916 17.1042L13.6874 15.0208L16.1249 14.3958L15.8749 11.9167L17.5624 10L15.8749 8.04167L16.1249 5.5625L13.6874 4.97917L12.2499 2.89583L9.99992 3.83333L7.70825 2.89583L6.31242 4.97917L3.87492 5.5625L4.12492 8.04167L2.43742 10L4.12492 11.9167L3.87492 14.4375L6.31242 15.0208L7.77075 17.1042ZM9.10409 12.7708L13.8333 8.08333L12.8958 7.22917L9.10409 10.9792L7.12492 8.91667L6.16659 9.85417L9.10409 12.7708Z" fill="#C082FD" fill-opacity="0.6"/>
</svg>
