<svg width="22" height="22" viewBox="0 0 22 22" fill="none" xmlns="http://www.w3.org/2000/svg">
<path d="M6.875 15.4458C7.05833 15.4458 7.21875 15.3771 7.35625 15.2396C7.49375 15.1021 7.5625 14.9417 7.5625 14.7583C7.5625 14.575 7.49375 14.4146 7.35625 14.2771C7.21875 14.1396 7.05833 14.0708 6.875 14.0708C6.69167 14.0708 6.53125 14.1396 6.39375 14.2771C6.25625 14.4146 6.1875 14.575 6.1875 14.7583C6.1875 14.9417 6.25625 15.1021 6.39375 15.2396C6.53125 15.3771 6.69167 15.4458 6.875 15.4458ZM6.875 11.6875C7.05833 11.6875 7.21875 11.6187 7.35625 11.4812C7.49375 11.3438 7.5625 11.1833 7.5625 11C7.5625 10.8167 7.49375 10.6563 7.35625 10.5188C7.21875 10.3813 7.05833 10.3125 6.875 10.3125C6.69167 10.3125 6.53125 10.3813 6.39375 10.5188C6.25625 10.6563 6.1875 10.8167 6.1875 11C6.1875 11.1833 6.25625 11.3438 6.39375 11.4812C6.53125 11.6187 6.69167 11.6875 6.875 11.6875ZM6.875 7.92917C7.05833 7.92917 7.21875 7.86042 7.35625 7.72292C7.49375 7.58542 7.5625 7.425 7.5625 7.24167C7.5625 7.05833 7.49375 6.89792 7.35625 6.76042C7.21875 6.62292 7.05833 6.55417 6.875 6.55417C6.69167 6.55417 6.53125 6.62292 6.39375 6.76042C6.25625 6.89792 6.1875 7.05833 6.1875 7.24167C6.1875 7.425 6.25625 7.58542 6.39375 7.72292C6.53125 7.86042 6.69167 7.92917 6.875 7.92917ZM9.9 15.4458H15.4917V14.0708H9.9V15.4458ZM9.9 11.6875H15.4917V10.3125H9.9V11.6875ZM9.9 7.92917H15.4917V6.55417H9.9V7.92917ZM4.125 19.25C3.75833 19.25 3.4375 19.1125 3.1625 18.8375C2.8875 18.5625 2.75 18.2417 2.75 17.875V4.125C2.75 3.75833 2.8875 3.4375 3.1625 3.1625C3.4375 2.8875 3.75833 2.75 4.125 2.75H17.875C18.2417 2.75 18.5625 2.8875 18.8375 3.1625C19.1125 3.4375 19.25 3.75833 19.25 4.125V17.875C19.25 18.2417 19.1125 18.5625 18.8375 18.8375C18.5625 19.1125 18.2417 19.25 17.875 19.25H4.125ZM4.125 17.875H17.875V4.125H4.125V17.875ZM4.125 4.125V17.875V4.125Z" fill="#777E99"/>
</svg>
