<svg width="22" height="22" viewBox="0 0 22 22" fill="none" xmlns="http://www.w3.org/2000/svg">
<path d="M3.20825 19.2497C2.84159 19.2497 2.52075 19.1122 2.24575 18.8372C1.97075 18.5622 1.83325 18.2413 1.83325 17.8747V6.87467C1.83325 6.50801 1.97075 6.18717 2.24575 5.91217C2.52075 5.63717 2.84159 5.49967 3.20825 5.49967H7.33325V3.20801C7.33325 2.84134 7.47075 2.52051 7.74575 2.24551C8.02075 1.97051 8.34159 1.83301 8.70825 1.83301H13.2916C13.6583 1.83301 13.9791 1.97051 14.2541 2.24551C14.5291 2.52051 14.6666 2.84134 14.6666 3.20801V5.49967H18.7916C19.1583 5.49967 19.4791 5.63717 19.7541 5.91217C20.0291 6.18717 20.1666 6.50801 20.1666 6.87467V17.8747C20.1666 18.2413 20.0291 18.5622 19.7541 18.8372C19.4791 19.1122 19.1583 19.2497 18.7916 19.2497H3.20825ZM3.20825 17.8747H18.7916V6.87467H3.20825V17.8747ZM8.70825 5.49967H13.2916V3.20801H8.70825V5.49967ZM3.20825 17.8747V6.87467V17.8747Z" fill="#777E99"/>
</svg>
