<svg width="22" height="22" viewBox="0 0 22 22" fill="none" xmlns="http://www.w3.org/2000/svg">
<path d="M11.0001 8.70801C9.99175 8.70801 9.16675 8.38717 8.52508 7.74551C7.88342 7.10384 7.56258 6.27884 7.56258 5.27051C7.56258 4.26217 7.88342 3.43717 8.52508 2.79551C9.16675 2.15384 9.99175 1.83301 11.0001 1.83301C12.0084 1.83301 12.8334 2.15384 13.4751 2.79551C14.1167 3.43717 14.4376 4.26217 14.4376 5.27051C14.4376 6.27884 14.1167 7.10384 13.4751 7.74551C12.8334 8.38717 12.0084 8.70801 11.0001 8.70801ZM11.0001 7.33301C11.5959 7.33301 12.0886 7.13822 12.4782 6.74863C12.8678 6.35905 13.0626 5.86634 13.0626 5.27051C13.0626 4.67467 12.8678 4.18197 12.4782 3.79238C12.0886 3.4028 11.5959 3.20801 11.0001 3.20801C10.4042 3.20801 9.91154 3.4028 9.52196 3.79238C9.13237 4.18197 8.93758 4.67467 8.93758 5.27051C8.93758 5.86634 9.13237 6.35905 9.52196 6.74863C9.91154 7.13822 10.4042 7.33301 11.0001 7.33301ZM3.66675 20.1663V14.1163C3.66675 13.5358 3.81189 13.0393 4.10216 12.6268C4.39244 12.2143 4.76675 11.9011 5.22508 11.6872C6.00425 11.3358 6.8789 11.0188 7.84904 10.7361C8.81918 10.4535 9.86953 10.3122 11.0001 10.3122C12.1306 10.3122 13.1772 10.4535 14.1397 10.7361C15.1022 11.0188 15.973 11.3358 16.7522 11.6872C17.2258 11.9011 17.6077 12.2143 17.898 12.6268C18.1883 13.0393 18.3334 13.5358 18.3334 14.1163V18.7913C18.3334 19.158 18.1959 19.4788 17.9209 19.7538C17.6459 20.0288 17.3251 20.1663 16.9584 20.1663H8.93758C8.29592 20.1663 7.75355 19.9448 7.3105 19.5018C6.86744 19.0587 6.64592 18.5163 6.64592 17.8747C6.64592 17.233 6.86744 16.6906 7.3105 16.2476C7.75355 15.8045 8.29592 15.583 8.93758 15.583H11.6417L13.2917 11.9163C12.8945 11.84 12.5011 11.7827 12.1115 11.7445C11.722 11.7063 11.3515 11.6872 11.0001 11.6872C9.90008 11.6872 8.91849 11.8132 8.05529 12.0653C7.1921 12.3174 6.43203 12.6038 5.77508 12.9247C5.56119 13.0316 5.3855 13.192 5.248 13.4059C5.1105 13.6198 5.04175 13.8566 5.04175 14.1163V20.1663H3.66675ZM8.93758 18.7913H10.1751L11.023 16.958H8.93758C8.69314 16.958 8.47925 17.0497 8.29592 17.233C8.11258 17.4163 8.02092 17.6302 8.02092 17.8747C8.02092 18.1191 8.11258 18.333 8.29592 18.5163C8.47925 18.6997 8.69314 18.7913 8.93758 18.7913ZM11.6876 18.7913H16.9584V14.1163C16.9584 13.8566 16.8858 13.6198 16.7407 13.4059C16.5956 13.192 16.4161 13.0316 16.2022 12.9247C16.0188 12.833 15.7973 12.7337 15.5376 12.6268C15.2779 12.5198 14.9799 12.4052 14.6438 12.283L11.6876 18.7913Z" fill="#777E99"/>
</svg>
