<svg width="22" height="22" viewBox="0 0 22 22" fill="none" xmlns="http://www.w3.org/2000/svg">
<path d="M3.66667 20.1663C3.40694 20.1663 3.18924 20.0785 3.01354 19.9028C2.83785 19.7271 2.75 19.5094 2.75 19.2497V14.2309C2.75 13.849 2.88368 13.5243 3.15104 13.257C3.4184 12.9896 3.74306 12.8559 4.125 12.8559H4.74375V8.68509C4.74375 8.30315 4.87743 7.97849 5.14479 7.71113C5.41215 7.44377 5.73681 7.31009 6.11875 7.31009H10.3125V5.84342C10.0069 5.62954 9.77396 5.39655 9.61354 5.14447C9.45313 4.89238 9.37292 4.59065 9.37292 4.23926C9.37292 4.01009 9.41493 3.79238 9.49896 3.58613C9.58299 3.37988 9.70139 3.20037 9.85417 3.04759L11 1.83301L12.1458 3.04759C12.2986 3.20037 12.4208 3.37988 12.5125 3.58613C12.6042 3.79238 12.65 4.01009 12.65 4.23926C12.65 4.59065 12.566 4.89238 12.3979 5.14447C12.2299 5.39655 11.9931 5.62954 11.6875 5.84342V7.31009H15.8813C16.2632 7.31009 16.5878 7.44377 16.8552 7.71113C17.1226 7.97849 17.2563 8.30315 17.2563 8.68509V12.8559H17.875C18.2569 12.8559 18.5816 12.9896 18.849 13.257C19.1163 13.5243 19.25 13.849 19.25 14.2309V19.2497C19.25 19.5094 19.1622 19.7271 18.9865 19.9028C18.8108 20.0785 18.5931 20.1663 18.3333 20.1663H3.66667ZM6.11875 12.8559H15.8813V8.68509H6.11875V12.8559ZM4.125 18.7913H17.875V14.2309H4.125V18.7913ZM6.11875 12.8559H15.8813H6.11875ZM4.125 18.7913H17.875H4.125ZM17.875 12.8559H4.125H17.875Z" fill="#777E99"/>
</svg>
