<svg width="22" height="22" viewBox="0 0 22 22" fill="none" xmlns="http://www.w3.org/2000/svg">
<path d="M7.33342 17.1872H14.6667V15.8122H7.33342V17.1872ZM7.33342 14.4372H14.6667V13.0622H7.33342V14.4372ZM11.0001 10.908C11.9779 10.0219 12.7952 9.27328 13.4522 8.66217C14.1091 8.05106 14.4376 7.36356 14.4376 6.59967C14.4376 6.11079 14.2619 5.69065 13.9105 5.33926C13.5591 4.98787 13.139 4.81217 12.6501 4.81217C12.2681 4.81217 11.9549 4.88474 11.7105 5.02988C11.4661 5.17502 11.2292 5.39273 11.0001 5.68301C10.7709 5.39273 10.5341 5.17502 10.2897 5.02988C10.0452 4.88474 9.73203 4.81217 9.35008 4.81217C8.86119 4.81217 8.44105 4.98787 8.08967 5.33926C7.73828 5.69065 7.56258 6.11079 7.56258 6.59967C7.56258 7.36356 7.8796 8.03961 8.51362 8.6278C9.14765 9.21599 9.97647 9.97606 11.0001 10.908ZM16.9584 20.1663H5.04175C4.67508 20.1663 4.35425 20.0288 4.07925 19.7538C3.80425 19.4788 3.66675 19.158 3.66675 18.7913V3.20801C3.66675 2.84134 3.80425 2.52051 4.07925 2.24551C4.35425 1.97051 4.67508 1.83301 5.04175 1.83301H16.9584C17.3251 1.83301 17.6459 1.97051 17.9209 2.24551C18.1959 2.52051 18.3334 2.84134 18.3334 3.20801V18.7913C18.3334 19.158 18.1959 19.4788 17.9209 19.7538C17.6459 20.0288 17.3251 20.1663 16.9584 20.1663ZM5.04175 18.7913H16.9584V3.20801H5.04175V18.7913ZM5.04175 18.7913V3.20801V18.7913Z" fill="#777E99"/>
</svg>
