<svg width="22" height="22" viewBox="0 0 22 22" fill="none" xmlns="http://www.w3.org/2000/svg">
<path d="M7.0125 12.9705C6.75278 12.9705 6.53507 12.8827 6.35938 12.707C6.18368 12.5313 6.09583 12.3136 6.09583 12.0538C6.09583 11.7941 6.18368 11.5764 6.35938 11.4007C6.53507 11.225 6.75278 11.1372 7.0125 11.1372C7.27222 11.1372 7.48993 11.225 7.66563 11.4007C7.84132 11.5764 7.92917 11.7941 7.92917 12.0538C7.92917 12.3136 7.84132 12.5313 7.66563 12.707C7.48993 12.8827 7.27222 12.9705 7.0125 12.9705ZM11.0688 12.9705C10.809 12.9705 10.5913 12.8827 10.4156 12.707C10.2399 12.5313 10.1521 12.3136 10.1521 12.0538C10.1521 11.7941 10.2399 11.5764 10.4156 11.4007C10.5913 11.225 10.809 11.1372 11.0688 11.1372C11.3285 11.1372 11.5462 11.225 11.7219 11.4007C11.8976 11.5764 11.9854 11.7941 11.9854 12.0538C11.9854 12.3136 11.8976 12.5313 11.7219 12.707C11.5462 12.8827 11.3285 12.9705 11.0688 12.9705ZM14.9646 12.9705C14.7049 12.9705 14.4872 12.8827 14.3115 12.707C14.1358 12.5313 14.0479 12.3136 14.0479 12.0538C14.0479 11.7941 14.1358 11.5764 14.3115 11.4007C14.4872 11.225 14.7049 11.1372 14.9646 11.1372C15.2243 11.1372 15.442 11.225 15.6177 11.4007C15.7934 11.5764 15.8813 11.7941 15.8813 12.0538C15.8813 12.3136 15.7934 12.5313 15.6177 12.707C15.442 12.8827 15.2243 12.9705 14.9646 12.9705ZM4.125 20.1663C3.75833 20.1663 3.4375 20.0288 3.1625 19.7538C2.8875 19.4788 2.75 19.158 2.75 18.7913V4.58301C2.75 4.21634 2.8875 3.89551 3.1625 3.62051C3.4375 3.34551 3.75833 3.20801 4.125 3.20801H5.61458V1.83301H7.10417V3.20801H14.8958V1.83301H16.3854V3.20801H17.875C18.2417 3.20801 18.5625 3.34551 18.8375 3.62051C19.1125 3.89551 19.25 4.21634 19.25 4.58301V18.7913C19.25 19.158 19.1125 19.4788 18.8375 19.7538C18.5625 20.0288 18.2417 20.1663 17.875 20.1663H4.125ZM4.125 18.7913H17.875V8.93717H4.125V18.7913ZM4.125 7.56217H17.875V4.58301H4.125V7.56217ZM4.125 7.56217V4.58301V7.56217Z" fill="#777E99"/>
</svg>
