<svg width="22" height="22" viewBox="0 0 22 22" fill="none" xmlns="http://www.w3.org/2000/svg">
<path d="M9.28141 12.833H16.5002V11.458H10.6564L9.28141 12.833ZM5.50016 12.833H7.31058L13.0856 7.12676C13.1772 7.03509 13.2231 6.92051 13.2231 6.78301C13.2231 6.64551 13.1772 6.53092 13.0856 6.43926L11.8252 5.29342C11.7488 5.21704 11.6533 5.17884 11.5387 5.17884C11.4241 5.17884 11.3286 5.21704 11.2522 5.29342L5.50016 11.1372V12.833ZM1.8335 20.1663V3.20801C1.8335 2.85662 1.971 2.53961 2.246 2.25697C2.521 1.97433 2.84183 1.83301 3.2085 1.83301H18.7918C19.1432 1.83301 19.4602 1.97433 19.7429 2.25697C20.0255 2.53961 20.1668 2.85662 20.1668 3.20801V15.1247C20.1668 15.4761 20.0255 15.7931 19.7429 16.0757C19.4602 16.3584 19.1432 16.4997 18.7918 16.4997H5.50016L1.8335 20.1663ZM3.2085 16.8434L4.92725 15.1247H18.7918V3.20801H3.2085V16.8434ZM3.2085 3.20801V16.8434V3.20801Z" fill="#777E99"/>
</svg>
