<svg width="22" height="22" viewBox="0 0 22 22" fill="none" xmlns="http://www.w3.org/2000/svg">
<path d="M13.6813 16.958C13.0549 16.958 12.5278 16.7441 12.1 16.3163C11.6722 15.8886 11.4583 15.3615 11.4583 14.7351C11.4583 14.1087 11.6722 13.5816 12.1 13.1538C12.5278 12.7261 13.0549 12.5122 13.6813 12.5122C14.3076 12.5122 14.8347 12.7261 15.2625 13.1538C15.6903 13.5816 15.9042 14.1087 15.9042 14.7351C15.9042 15.3615 15.6903 15.8886 15.2625 16.3163C14.8347 16.7441 14.3076 16.958 13.6813 16.958ZM4.125 20.1663C3.75833 20.1663 3.4375 20.0288 3.1625 19.7538C2.8875 19.4788 2.75 19.158 2.75 18.7913V4.58301C2.75 4.21634 2.8875 3.89551 3.1625 3.62051C3.4375 3.34551 3.75833 3.20801 4.125 3.20801H5.61458V1.83301H7.10417V3.20801H14.8958V1.83301H16.3854V3.20801H17.875C18.2417 3.20801 18.5625 3.34551 18.8375 3.62051C19.1125 3.89551 19.25 4.21634 19.25 4.58301V18.7913C19.25 19.158 19.1125 19.4788 18.8375 19.7538C18.5625 20.0288 18.2417 20.1663 17.875 20.1663H4.125ZM4.125 18.7913H17.875V8.93717H4.125V18.7913ZM4.125 7.56217H17.875V4.58301H4.125V7.56217ZM4.125 7.56217V4.58301V7.56217Z" fill="#777E99"/>
</svg>
