<svg width="22" height="22" viewBox="0 0 22 22" fill="none" xmlns="http://www.w3.org/2000/svg">
<path d="M11.0231 20.1663L10.0835 17.4163H3.66683C3.13211 17.4163 2.69287 17.2445 2.34912 16.9007C2.00537 16.557 1.8335 16.1177 1.8335 15.583V3.66634C1.8335 3.13162 2.00537 2.69238 2.34912 2.34863C2.69287 2.00488 3.13211 1.83301 3.66683 1.83301H9.16683L9.96891 4.56009H18.3335C18.8682 4.56009 19.3075 4.73197 19.6512 5.07572C19.995 5.41947 20.1668 5.8587 20.1668 6.39342V18.333C20.1668 18.8677 19.995 19.307 19.6512 19.6507C19.3075 19.9945 18.8682 20.1663 18.3335 20.1663H11.0231ZM6.57725 13.383C7.63141 13.383 8.49461 13.0393 9.16683 12.3518C9.83905 11.6643 10.1752 10.7781 10.1752 9.69342V9.33822C10.1752 9.23891 10.1599 9.15106 10.1293 9.07467H6.48558V10.4726H8.54808C8.42586 10.9156 8.19287 11.2594 7.84912 11.5038C7.50537 11.7483 7.08905 11.8705 6.60016 11.8705C6.00433 11.8705 5.49252 11.6528 5.06475 11.2174C4.63697 10.782 4.42308 10.2511 4.42308 9.62467C4.42308 8.99829 4.63697 8.46738 5.06475 8.03197C5.49252 7.59655 6.00433 7.37884 6.60016 7.37884C6.87516 7.37884 7.13107 7.42849 7.36787 7.5278C7.60468 7.6271 7.82238 7.77606 8.021 7.97467L9.14391 6.92051C8.83836 6.5844 8.45641 6.32467 7.99808 6.14134C7.53975 5.95801 7.06613 5.86634 6.57725 5.86634C5.53836 5.86634 4.65607 6.23301 3.93037 6.96634C3.20468 7.69967 2.84183 8.58579 2.84183 9.62467C2.84183 10.6636 3.20468 11.5497 3.93037 12.283C4.65607 13.0163 5.53836 13.383 6.57725 13.383ZM12.696 13.8184L13.2231 13.3372C13.0092 13.0775 12.8106 12.8292 12.6272 12.5924C12.4439 12.3556 12.2682 12.0997 12.1002 11.8247L12.696 13.8184ZM13.8418 12.6497C14.2849 12.1455 14.6172 11.6643 14.8387 11.2059C15.0602 10.7476 15.2092 10.3886 15.2856 10.1288H11.6418L11.8939 11.1143H12.8106C12.9328 11.3434 13.0779 11.5879 13.246 11.8476C13.4141 12.1073 13.6127 12.3747 13.8418 12.6497ZM11.9397 19.2497H18.3335C18.5932 19.2497 18.8109 19.1618 18.9866 18.9861C19.1623 18.8104 19.2502 18.5927 19.2502 18.333V6.39342C19.2502 6.1337 19.1623 5.91599 18.9866 5.7403C18.8109 5.5646 18.5932 5.47676 18.3335 5.47676H10.2668L11.321 9.21217H13.1314V8.22676H14.071V9.21217H17.4397V10.1288H16.2481C16.1106 10.7094 15.8891 11.2747 15.5835 11.8247C15.2779 12.3747 14.9189 12.8865 14.5064 13.3601L17.0043 15.8351L16.3397 16.4997L13.8418 14.0247L13.0168 14.8497L13.7731 17.4163L11.9397 19.2497Z" fill="#777E99"/>
</svg>
