<svg width="22" height="22" viewBox="0 0 22 22" fill="none" xmlns="http://www.w3.org/2000/svg">
<path d="M11.0002 20.1663C9.71683 20.1663 8.51752 19.9257 7.40225 19.4445C6.28697 18.9632 5.31683 18.3101 4.49183 17.4851C3.66683 16.6601 3.01752 15.6861 2.54391 14.5632C2.0703 13.4403 1.8335 12.2372 1.8335 10.9538C1.8335 9.67051 2.0703 8.47502 2.54391 7.36738C3.01752 6.25974 3.66683 5.29342 4.49183 4.46842C5.31683 3.64342 6.28697 2.99794 7.40225 2.53197C8.51752 2.06599 9.71683 1.83301 11.0002 1.83301C12.2835 1.83301 13.4828 2.06599 14.5981 2.53197C15.7134 2.99794 16.6835 3.64342 17.5085 4.46842C18.3335 5.29342 18.9828 6.25974 19.4564 7.36738C19.93 8.47502 20.1668 9.67051 20.1668 10.9538C20.1668 12.2372 19.93 13.4403 19.4564 14.5632C18.9828 15.6861 18.3335 16.6601 17.5085 17.4851C16.6835 18.3101 15.7134 18.9632 14.5981 19.4445C13.4828 19.9257 12.2835 20.1663 11.0002 20.1663ZM11.0002 18.8372C11.5349 18.2872 11.9818 17.657 12.3408 16.9465C12.6998 16.2361 12.9939 15.392 13.2231 14.4143H8.80016C9.01405 15.3309 9.30051 16.1559 9.65954 16.8893C10.0186 17.6226 10.4654 18.2719 11.0002 18.8372ZM9.05225 18.5622C8.6703 17.9816 8.34183 17.3552 8.06683 16.683C7.79183 16.0108 7.56266 15.2545 7.37933 14.4143H3.94183C4.52239 15.499 5.19461 16.3507 5.9585 16.9695C6.72238 17.5882 7.75363 18.1191 9.05225 18.5622ZM12.971 18.5393C14.071 18.1879 15.0602 17.6608 15.9387 16.958C16.8172 16.2552 17.5238 15.4073 18.0585 14.4143H14.6439C14.4453 15.2393 14.2123 15.9879 13.945 16.6601C13.6776 17.3323 13.3529 17.9587 12.971 18.5393ZM3.4835 13.0393H7.12725C7.08141 12.6268 7.05468 12.2563 7.04704 11.9278C7.0394 11.5993 7.03558 11.2747 7.03558 10.9538C7.03558 10.5719 7.04322 10.232 7.0585 9.93405C7.07377 9.63613 7.10433 9.30384 7.15016 8.93717H3.4835C3.37655 9.30384 3.30398 9.63231 3.26579 9.92259C3.22759 10.2129 3.2085 10.5566 3.2085 10.9538C3.2085 11.3511 3.22759 11.7063 3.26579 12.0195C3.30398 12.3327 3.37655 12.6726 3.4835 13.0393ZM8.54808 13.0393H13.4752C13.5363 12.5656 13.5745 12.1799 13.5897 11.882C13.605 11.584 13.6127 11.2747 13.6127 10.9538C13.6127 10.6483 13.605 10.3542 13.5897 10.0715C13.5745 9.78891 13.5363 9.41079 13.4752 8.93717H8.54808C8.48697 9.41079 8.44877 9.78891 8.4335 10.0715C8.41822 10.3542 8.41058 10.6483 8.41058 10.9538C8.41058 11.2747 8.41822 11.584 8.4335 11.882C8.44877 12.1799 8.48697 12.5656 8.54808 13.0393ZM14.8502 13.0393H18.5168C18.6238 12.6726 18.6963 12.3327 18.7345 12.0195C18.7727 11.7063 18.7918 11.3511 18.7918 10.9538C18.7918 10.5566 18.7727 10.2129 18.7345 9.92259C18.6963 9.63231 18.6238 9.30384 18.5168 8.93717H14.8731C14.9189 9.4719 14.9495 9.88058 14.9647 10.1632C14.98 10.4459 14.9877 10.7094 14.9877 10.9538C14.9877 11.29 14.9762 11.607 14.9533 11.9049C14.9304 12.2028 14.896 12.5809 14.8502 13.0393ZM14.621 7.56217H18.0585C17.5543 6.50801 16.863 5.62954 15.9845 4.92676C15.1061 4.22398 14.0939 3.72745 12.9481 3.43717C13.33 4.00245 13.6547 4.61356 13.922 5.27051C14.1894 5.92745 14.4224 6.69134 14.621 7.56217ZM8.80016 7.56217H13.246C13.0779 6.75245 12.7953 5.96947 12.3981 5.21322C12.0009 4.45697 11.5349 3.78856 11.0002 3.20801C10.5113 3.62051 10.0988 4.16287 9.76266 4.83509C9.42655 5.50731 9.10572 6.41634 8.80016 7.56217ZM3.94183 7.56217H7.40225C7.5703 6.73717 7.78419 6.00002 8.04391 5.35072C8.30363 4.70141 8.63211 4.0712 9.02933 3.46009C7.8835 3.75037 6.8828 4.23926 6.02725 4.92676C5.17169 5.61426 4.47655 6.49273 3.94183 7.56217Z" fill="#777E99"/>
</svg>
