<svg width="22" height="22" viewBox="0 0 22 22" fill="none" xmlns="http://www.w3.org/2000/svg">
<path d="M9.9915 14.048L15.2165 8.82305L14.254 7.88346L10.0603 12.0772L7.74567 9.76263L6.73734 10.771L9.9915 14.048ZM10.9998 20.1439C8.86095 19.6092 7.104 18.3678 5.729 16.4199C4.354 14.472 3.6665 12.3369 3.6665 10.0147V4.56055L10.9998 1.81055L18.3332 4.56055V10.0147C18.3332 12.3369 17.6457 14.472 16.2707 16.4199C14.8957 18.3678 13.1387 19.6092 10.9998 20.1439ZM10.9998 18.723C12.7568 18.1425 14.1891 17.0463 15.2967 15.4345C16.4044 13.8227 16.9582 12.0161 16.9582 10.0147V5.52305L10.9998 3.27721L5.0415 5.52305V10.0147C5.0415 12.0161 5.59532 13.8227 6.70296 15.4345C7.8106 17.0463 9.24289 18.1425 10.9998 18.723Z" fill="#777E99"/>
</svg>
