<svg width="22" height="22" viewBox="0 0 22 22" fill="none" xmlns="http://www.w3.org/2000/svg">
<path d="M10.9998 10.9775C9.9915 10.9775 9.1665 10.6567 8.52484 10.015C7.88317 9.37337 7.56234 8.54837 7.56234 7.54004C7.56234 6.53171 7.88317 5.70671 8.52484 5.06504C9.1665 4.42337 9.9915 4.10254 10.9998 4.10254C12.0082 4.10254 12.8332 4.42337 13.4748 5.06504C14.1165 5.70671 14.4373 6.53171 14.4373 7.54004C14.4373 8.54837 14.1165 9.37337 13.4748 10.015C12.8332 10.6567 12.0082 10.9775 10.9998 10.9775ZM3.6665 18.3338V16.1796C3.6665 15.5991 3.81164 15.1025 4.10192 14.69C4.3922 14.2775 4.7665 13.9643 5.22484 13.7505C6.24845 13.2921 7.23005 12.9484 8.16963 12.7192C9.10921 12.49 10.0526 12.3755 10.9998 12.3755C11.9471 12.3755 12.8866 12.4939 13.8186 12.7307C14.7505 12.9675 15.7283 13.3074 16.7519 13.7505C17.2255 13.9643 17.6075 14.2775 17.8978 14.69C18.188 15.1025 18.3332 15.5991 18.3332 16.1796V18.3338H3.6665ZM5.0415 16.9588H16.9582V16.1796C16.9582 15.9352 16.8856 15.7022 16.7405 15.4807C16.5953 15.2591 16.4158 15.0949 16.2019 14.988C15.2241 14.5143 14.3304 14.1897 13.5207 14.014C12.7109 13.8383 11.8707 13.7505 10.9998 13.7505C10.129 13.7505 9.28109 13.8383 8.45609 14.014C7.63109 14.1897 6.73734 14.5143 5.77484 14.988C5.56095 15.0949 5.38525 15.2591 5.24775 15.4807C5.11025 15.7022 5.0415 15.9352 5.0415 16.1796V16.9588ZM10.9998 9.60254C11.5957 9.60254 12.0884 9.40775 12.478 9.01816C12.8675 8.62858 13.0623 8.13587 13.0623 7.54004C13.0623 6.94421 12.8675 6.4515 12.478 6.06191C12.0884 5.67233 11.5957 5.47754 10.9998 5.47754C10.404 5.47754 9.9113 5.67233 9.52171 6.06191C9.13213 6.4515 8.93734 6.94421 8.93734 7.54004C8.93734 8.13587 9.13213 8.62858 9.52171 9.01816C9.9113 9.40775 10.404 9.60254 10.9998 9.60254Z" fill="#777E99"/>
</svg>
