<svg width="22" height="22" viewBox="0 0 22 22" fill="none" xmlns="http://www.w3.org/2000/svg">
<path d="M16.6604 20.1663C15.9424 20.1663 15.3274 19.9104 14.8156 19.3986C14.3038 18.8868 14.0479 18.2719 14.0479 17.5538C14.0479 17.4469 14.0594 17.3209 14.0823 17.1757C14.1052 17.0306 14.1396 16.8969 14.1854 16.7747L7.24167 12.7413C7.0125 13.0011 6.72986 13.2111 6.39375 13.3715C6.05764 13.532 5.71389 13.6122 5.3625 13.6122C4.64444 13.6122 4.02951 13.3563 3.51771 12.8445C3.0059 12.3327 2.75 11.7177 2.75 10.9997C2.75 10.2663 3.0059 9.64759 3.51771 9.14342C4.02951 8.63926 4.64444 8.38717 5.3625 8.38717C5.71389 8.38717 6.05 8.45592 6.37083 8.59342C6.69167 8.73092 6.98194 8.92953 7.24167 9.18926L14.1854 5.20176C14.1396 5.09481 14.1052 4.97259 14.0823 4.83509C14.0594 4.69759 14.0479 4.56773 14.0479 4.44551C14.0479 3.71217 14.3038 3.09342 14.8156 2.58926C15.3274 2.08509 15.9424 1.83301 16.6604 1.83301C17.3937 1.83301 18.0125 2.08509 18.5167 2.58926C19.0208 3.09342 19.2729 3.71217 19.2729 4.44551C19.2729 5.16356 19.0208 5.77849 18.5167 6.2903C18.0125 6.8021 17.3937 7.05801 16.6604 7.05801C16.309 7.05801 15.9691 7.00072 15.6406 6.88613C15.3122 6.77155 15.0333 6.5844 14.8042 6.32467L7.86042 10.1747C7.89097 10.2969 7.91771 10.4382 7.94063 10.5986C7.96354 10.759 7.975 10.8927 7.975 10.9997C7.975 11.1066 7.96354 11.2212 7.94063 11.3434C7.91771 11.4656 7.89097 11.5879 7.86042 11.7101L14.8042 15.6518C15.0333 15.4379 15.3007 15.266 15.6062 15.1361C15.9118 15.0063 16.2632 14.9413 16.6604 14.9413C17.3937 14.9413 18.0125 15.1934 18.5167 15.6976C19.0208 16.2018 19.2729 16.8205 19.2729 17.5538C19.2729 18.2719 19.0208 18.8868 18.5167 19.3986C18.0125 19.9104 17.3937 20.1663 16.6604 20.1663ZM16.6604 5.68301C17.0118 5.68301 17.3059 5.5646 17.5427 5.3278C17.7795 5.09099 17.8979 4.7969 17.8979 4.44551C17.8979 4.09412 17.7795 3.80002 17.5427 3.56322C17.3059 3.32641 17.0118 3.20801 16.6604 3.20801C16.309 3.20801 16.0149 3.32641 15.7781 3.56322C15.5413 3.80002 15.4229 4.09412 15.4229 4.44551C15.4229 4.7969 15.5413 5.09099 15.7781 5.3278C16.0149 5.5646 16.309 5.68301 16.6604 5.68301ZM5.3625 12.2372C5.71389 12.2372 6.00799 12.1188 6.24479 11.882C6.4816 11.6452 6.6 11.3511 6.6 10.9997C6.6 10.6483 6.4816 10.3542 6.24479 10.1174C6.00799 9.88058 5.71389 9.76217 5.3625 9.76217C5.01111 9.76217 4.71701 9.88058 4.48021 10.1174C4.2434 10.3542 4.125 10.6483 4.125 10.9997C4.125 11.3511 4.2434 11.6452 4.48021 11.882C4.71701 12.1188 5.01111 12.2372 5.3625 12.2372ZM16.6604 18.7913C17.0118 18.7913 17.3059 18.6729 17.5427 18.4361C17.7795 18.1993 17.8979 17.9052 17.8979 17.5538C17.8979 17.2025 17.7795 16.9084 17.5427 16.6715C17.3059 16.4347 17.0118 16.3163 16.6604 16.3163C16.309 16.3163 16.0149 16.4347 15.7781 16.6715C15.5413 16.9084 15.4229 17.2025 15.4229 17.5538C15.4229 17.9052 15.5413 18.1993 15.7781 18.4361C16.0149 18.6729 16.309 18.7913 16.6604 18.7913Z" fill="#777E99"/>
</svg>
