<svg width="22" height="22" viewBox="0 0 22 22" fill="none" xmlns="http://www.w3.org/2000/svg">
<path d="M4.125 19.25C3.75833 19.25 3.4375 19.1125 3.1625 18.8375C2.8875 18.5625 2.75 18.2417 2.75 17.875H4.125V19.25ZM2.75 15.95V14.025H4.125V15.95H2.75ZM2.75 12.1V10.175H4.125V12.1H2.75ZM2.75 8.27292V6.34792H4.125V8.27292H2.75ZM6.05 19.25V17.875H7.975V19.25H6.05ZM7.425 15.95C7.05833 15.95 6.7375 15.8125 6.4625 15.5375C6.1875 15.2625 6.05 14.9417 6.05 14.575V4.125C6.05 3.75833 6.1875 3.4375 6.4625 3.1625C6.7375 2.8875 7.05833 2.75 7.425 2.75H17.875C18.2417 2.75 18.5625 2.8875 18.8375 3.1625C19.1125 3.4375 19.25 3.75833 19.25 4.125V14.575C19.25 14.9417 19.1125 15.2625 18.8375 15.5375C18.5625 15.8125 18.2417 15.95 17.875 15.95H7.425ZM7.425 14.575H17.875V4.125H7.425V14.575ZM9.9 19.25V17.875H11.825V19.25H9.9ZM13.75 19.25V17.875H15.675V19.25H13.75Z" fill="#777E99"/>
</svg>
