<svg width="22" height="22" viewBox="0 0 22 22" fill="none" xmlns="http://www.w3.org/2000/svg">
<path d="M17.5543 19.25C16.9279 19.25 16.3818 19.0628 15.9158 18.6885C15.4498 18.3142 15.1557 17.8597 15.0335 17.325H10.1522C9.14391 17.325 8.30745 16.9927 7.64287 16.3281C6.97829 15.6635 6.646 14.8271 6.646 13.8188C6.646 12.8104 6.97829 11.974 7.64287 11.3094C8.30745 10.6448 9.14391 10.3125 10.1522 10.3125H11.9168C12.5432 10.3125 13.055 10.1139 13.4522 9.71667C13.8495 9.31945 14.0481 8.80764 14.0481 8.18125C14.0481 7.55486 13.8495 7.04306 13.4522 6.64583C13.055 6.24861 12.5432 6.05 11.9168 6.05H6.96683C6.82933 6.58472 6.53141 7.03924 6.07308 7.41354C5.61475 7.78785 5.07238 7.975 4.446 7.975C3.71266 7.975 3.09391 7.72292 2.58975 7.21875C2.08558 6.71458 1.8335 6.09583 1.8335 5.3625C1.8335 4.62917 2.08558 4.01042 2.58975 3.50625C3.09391 3.00208 3.71266 2.75 4.446 2.75C5.07238 2.75 5.61475 2.93715 6.07308 3.31146C6.53141 3.68576 6.82933 4.14028 6.96683 4.675H11.9168C12.9252 4.675 13.7616 5.00729 14.4262 5.67188C15.0908 6.33646 15.4231 7.17292 15.4231 8.18125C15.4231 9.18958 15.0908 10.026 14.4262 10.6906C13.7616 11.3552 12.9252 11.6875 11.9168 11.6875H10.1522C9.52586 11.6875 9.01405 11.8861 8.61683 12.2833C8.21961 12.6806 8.021 13.1924 8.021 13.8188C8.021 14.4451 8.21961 14.9569 8.61683 15.3542C9.01405 15.7514 9.52586 15.95 10.1522 15.95H15.0335C15.171 15.4153 15.4689 14.9608 15.9272 14.5865C16.3856 14.2122 16.9279 14.025 17.5543 14.025C18.2877 14.025 18.9064 14.2771 19.4106 14.7812C19.9147 15.2854 20.1668 15.9042 20.1668 16.6375C20.1668 17.3708 19.9147 17.9896 19.4106 18.4937C18.9064 18.9979 18.2877 19.25 17.5543 19.25ZM4.446 6.6C4.79738 6.6 5.09148 6.4816 5.32829 6.24479C5.56509 6.00799 5.6835 5.71389 5.6835 5.3625C5.6835 5.01111 5.56509 4.71701 5.32829 4.48021C5.09148 4.2434 4.79738 4.125 4.446 4.125C4.09461 4.125 3.80051 4.2434 3.5637 4.48021C3.3269 4.71701 3.2085 5.01111 3.2085 5.3625C3.2085 5.71389 3.3269 6.00799 3.5637 6.24479C3.80051 6.4816 4.09461 6.6 4.446 6.6Z" fill="#777E99"/>
</svg>
