<svg width="22" height="22" viewBox="0 0 22 22" fill="none" xmlns="http://www.w3.org/2000/svg">
<path d="M0 13.6354V8.36458H1.375V13.6354H0ZM2.75 15.6521V6.34792H4.125V15.6521H2.75ZM20.625 13.6354V8.36458H22V13.6354H20.625ZM17.875 15.6521V6.34792H19.25V15.6521H17.875ZM6.875 19.25C6.49306 19.25 6.1684 19.1163 5.90104 18.849C5.63368 18.5816 5.5 18.2569 5.5 17.875V4.125C5.5 3.74306 5.63368 3.4184 5.90104 3.15104C6.1684 2.88368 6.49306 2.75 6.875 2.75H15.125C15.5069 2.75 15.8316 2.88368 16.099 3.15104C16.3663 3.4184 16.5 3.74306 16.5 4.125V17.875C16.5 18.2569 16.3663 18.5816 16.099 18.849C15.8316 19.1163 15.5069 19.25 15.125 19.25H6.875ZM6.875 17.875H15.125V4.125H6.875V17.875ZM6.875 17.875V4.125V17.875Z" fill="#777E99"/>
</svg>
